<?xml version="1.0" encoding="utf-8"?>
<!-- Generator: Adobe Illustrator 23.0.1, SVG Export Plug-In . SVG Version: 6.00 Build 0)  -->
<svg version="1.1" id="Layer_1" xmlns="http://www.w3.org/2000/svg" xmlns:xlink="http://www.w3.org/1999/xlink" x="0px" y="0px"
	 viewBox="0 0 1000 1000" style="enable-background:new 0 0 1000 1000;" xml:space="preserve">
<style type="text/css">
	.st0{fill-rule:evenodd;clip-rule:evenodd;fill:#FFFFFF;}
	.st1{fill-rule:evenodd;clip-rule:evenodd;fill:#D1E187;}
	.st2{fill-rule:evenodd;clip-rule:evenodd;fill:#8BC53F;}
	.st3{fill-rule:evenodd;clip-rule:evenodd;fill:#81211C;stroke:#CC8B5D;stroke-width:1.7157;stroke-miterlimit:2.6131;}
	.st4{fill-rule:evenodd;clip-rule:evenodd;fill:#EB2026;stroke:#CC8B5D;stroke-width:1.7157;stroke-miterlimit:2.6131;}
</style>
<g>
	<path class="st0" d="M284.5,343.7h76.8c24.4,0,44.4,20,44.4,44.4v127.7c0,24.4-20,44.4-44.4,44.4h-76.8c-24.4,0-44.4-20-44.4-44.4
		V388.1C240,363.6,260,343.7,284.5,343.7L284.5,343.7z"/>
	<path class="st1" d="M389,750.7H256.7c-19.3,0-35.2-15.8-35.2-35.2V327.9c0-19.3,15.8-35.2,35.2-35.2H389c1.6,0,3.1,0.1,4.6,0.3
		v-28.5c0-8.4,6.9-15.3,15.3-15.3l0,0c8.4,0,15.3,6.9,15.3,15.3v48.1c0,2.1-0.4,4.2-1.2,6c0.8,2.9,1.2,6,1.2,9.2v387.6
		C424.1,734.9,408.3,750.7,389,750.7L389,750.7z M284.5,343.7h76.8c24.4,0,44.4,20,44.4,44.4v127.7c0,24.4-20,44.4-44.4,44.4h-76.8
		c-24.4,0-44.4-20-44.4-44.4V388.1C240,363.6,260,343.7,284.5,343.7L284.5,343.7z"/>
	<path class="st2" d="M455.2,351.8l84.4-0.3c30.8,3.9,45,26.9,43.7,60.5c-2.3,33.8-21.5,50.3-53.5,53.2l-30.6-0.6l0.9,92.7h-44.9
		V351.8L455.2,351.8z M500.6,372.9c20.8-3,36.8,2.8,37.9,35.6c-0.7,29.3-16.3,36.7-37.9,35.2V372.9L500.6,372.9z"/>
	<path class="st2" d="M661.8,349.2l53.4-0.2l-0.4,22.9l-41.9-0.2c-24.2,4.5-18.7,30.3-19.9,48.9l56.3-1.1l0.2,28.2l-54.6-0.6
		l-0.3,68.2c2.1,17.7,11.4,26.6,27.2,27.6l30-0.3l9.1,0.2l-0.3,21.3l-9.4,0.4l-57-0.6c-19.6-0.7-35.5-10.4-42.8-40.7l-1.4-132.3
		C611,363.8,628.9,350.5,661.8,349.2L661.8,349.2z"/>
	<path class="st2" d="M734.8,407.3c-3.4-44.3,21.3-54.3,51.3-57.8c35.1-2.1,57.2,12.6,61.5,50l-41.5-0.1
		c-2.6-18.9-17.3-26.1-30.7-17.1c-19.1,23.4,40.6,64.6,58.5,79.9c31,24.5,25.7,92.3-22,104.9l-29.1,1c-29.5,0.7-47.1-18-52.2-52.5
		l41.8-0.7c2.3,14.8,8.6,23.9,22,23.3c20.8-4,26.5-22.3,11.7-45.7C775.3,466.1,738.6,441.4,734.8,407.3L734.8,407.3z"/>
	<path class="st2" d="M0,342.5h43.9l0.5,13.6c26.5-11.5,46.6-19.6,67.5-0.7c37.5-17.7,65.9-15.7,79.9,17.2l2,184.5h-44.3v-176
		c-3.3-15.1-15.2-17.6-29.6-16.7v192.6H74.6v-176c-3.3-15.1-15.2-17.6-29.6-16.7v192.6H0V342.5L0,342.5z"/>
	<path class="st2" d="M872.3,562.6h45.6V449.2h37.9v113.3h44.2V400.7c-0.9-32.9-26.2-53.5-62-53.7c-40.9-0.4-64.1,19-65.7,51.8
		V562.6L872.3,562.6z M917.9,389.1c1.5-12.1,5.4-17,18.7-18.3c13.5,0.3,18.3,8.1,19.2,20.1v32.8h-37.9V389.1L917.9,389.1z"/>
	<path class="st3" d="M275.4,430c7.6,17.8,17.9,25.9,30.5,26.4c-19.5,14.6-40.7,23.5-62.7,29.1c-13.8-0.9-27.1-4.4-39.9-7.9
		C235.7,471.3,259.9,455.6,275.4,430L275.4,430z"/>
	<path class="st4" d="M360.5,384.2l91.6,46.3c-46.6,61.4-125.3,63-209.1,55C299.1,471.7,337.8,437.5,360.5,384.2L360.5,384.2z"/>
</g>
</svg>
